<?xml version="1.0" encoding="utf-8"?>
<!-- Generator: Adobe Illustrator 23.0.1, SVG Export Plug-In . SVG Version: 6.00 Build 0)  -->
<svg version="1.1" id="logo" xmlns="http://www.w3.org/2000/svg" xmlns:xlink="http://www.w3.org/1999/xlink" x="0px" y="0px"
	 viewBox="0 0 169.3 63.1" style="enable-background:new 0 0 169.3 63.1;" xml:space="preserve">
<style type="text/css">
	.st0{fill:#FFFFFF;}
</style>
<g>
	<g>
		<g>
			<path class="st0" d="M30.5,37.4c0,0.6-0.3,0.6-0.2,1c0.1,0.4-0.9,3-1.1,3.4c-0.6,1.5-1.2,3-1.8,4.4c-0.8,1.7-1.7,3.1-2.5,4.7
				c-0.4,0.6-4.7,6.2-5.2,6.5c-1.2,0.8-3.2,3.2-4.3,4c-0.7,0.5-3.5,1.5-4.2,1.6c-1.2,0.1-2.5,0.2-3.6-0.1C5.8,62.7,3,59.8,2,58
				c-0.5-0.8-1-1.6-1.3-2.5c-0.4-1.2-0.6-3.1-0.7-4.5c0-7.8,0.9-8.9,3.1-16.3c0.2-0.6,0.3-1.2,0.5-1.8c0.1-0.6,0.4-1.3,0.6-1.8
				c0.3-1,0.6-2,0.8-3c0.5-2,2.9-5.5,0.6-6c-0.6-0.1-1.2,0-1.8-0.5c-0.6-0.4-1.1-0.6-1.7-1c-0.2-0.2-0.5-0.4-0.6-0.8
				c0.2-0.1,0.4-0.2,0.5-0.2c1.3-0.3,2.5-0.6,3.8-0.8c0.8-0.2,1.8-0.3,2.7-0.4c0.4-0.1,0.7-0.3,0.9-0.7c0.3-0.7,0.7-1.4,0.9-2.2
				c0.9-1.8,1.6-3.6,2.6-5.3c0.9-1.5,1.8-2.8,3-3.9c0.2-0.3,0.5-0.6,0.6-0.7c0.4-0.3,0.7-0.5,1.2-0.4C18.5,5.3,19,5,19.7,5
				c0.1,0,0.1,0,0.2-0.1c1.3-0.3,1.8,0.3,2.1,1.3c0.5,0.9,0.6,1.8,0.6,3c0,0.6,0.1,1,0.2,1.5c0.1,0.4,0.1,0.8,0,1.3
				c-0.1,0.5-0.2,0.9-0.3,1.5c-0.2,0.7-0.4,1.5-0.6,2.2c0,0.3,0,0.5-0.1,0.7c0.3,0.2,0.6,0.2,0.9,0.2c1.1-0.1,2.3-0.2,3.4-0.3
				c1.6,0,3.2,0,4.8,0c0.6,0,1.1,0.2,1.8,0.3c-0.2,0.3-0.3,0.5-0.4,0.6c-0.2,0.2-0.5,0.4-0.6,0.5c-0.6,0.3-1.4,0.6-2,0.9
				c0,0.1-0.1,0.1-0.1,0.1c-1,0.1-2.1,0.6-3.2,0.5c-0.6,0-1.3,0.1-1.9,0.3c-0.4,0.2-0.8,0.2-1.2,0.3c-0.7,0.1-1.4,0.2-2.1,0.3
				c-0.4,0.1-0.6,0.4-0.7,0.7c-0.1,0.1-0.1,0.2-0.2,0.3C19.1,24,17.6,27,16.4,30c-0.2,0.4-0.4,0.7-0.5,1c-0.5,0.9-0.8,1.8-1.1,2.8
				c-0.3,0.8-0.7,1.7-1.2,2.4c-0.4,0.6-0.3,1.5-0.7,2.1c-1,2.3-2.2,9.3-2,12.8c0.1,1.5,0.5,2.9,0.9,4.2c0.2,0.5,0.6,0.7,0.8,1.1
				c0.1,0,0.2,0.1,0.4,0.1c0.8,0,2.5,0.1,3.3-0.5c0.6-0.4,3.3-2.6,3.9-3c1.4-1.4,4.5-4.8,5.4-6.6c0.8-1.6,1.3-3.6,2.1-5.1
				c0.4-0.9,1.3-3,1.8-4C30,37.5,30.6,37.1,30.5,37.4z M16.2,23.7c0.9-2.3,1.2-4.2-1.8-2.2c-1,3-1.4,5.2-2.2,8
				c-2,7.7,0.9,1.9,2.2-1.5C15,26.3,15.4,25.4,16.2,23.7z M19.1,13.1c0.1-0.4,0.2-0.8,0.3-1.3c0.1-0.7,0.3-1.5,0.4-2.2
				c0.1-0.8,0-1.7-0.1-2.5c-0.1-0.4-0.4-0.5-0.6-0.3c-0.4,0.3-0.6,0.5-0.8,0.9c-0.4,0.7-0.7,1.6-0.9,2.4c-0.1,0.3-0.3,0.6-0.4,0.8
				c-0.2,0.4-0.4,0.7-0.6,1.2c-0.2,0.9-0.4,1.9-0.6,3c-0.4,2.4,2.2,2.5,2.8,0.8C18.7,15.1,18.9,14.1,19.1,13.1z"/>
		</g>
		<g>
			<path class="st0" d="M36.3,40.6c0.4-1.4,3.6-7.9,4.2-9c0.6-0.8,1.1-1.7,1.6-2.6c0.6-0.7,1.1-1.6,1.5-2.3c0.4-0.6,0.9-1,1.5-1.1
				c0.6,0,1.2-0.1,1.8-0.1c1.1,0,1.8,0.8,2.3,2c0,0.1,0,0.2,0,0.4c0.2,1.2,0.5,2.5,0.6,3.8c0.2,1.2,0.1,2.5,0.1,3.7
				c0,0.8,0.1,1.7,0,2.5c0.5,0.3,0.4,0.6,0.5,0.6c0.2-0.2,0.8,0.1,1-0.1c0.1-0.2,0.3-0.3,0.4-0.5c0.4-0.3,0.7-0.6,1.1-1
				c0.3-0.5,0.6-0.5,0.9,0c0,0.3-0.1,0.6-0.4,0.7c-0.1,0.1-0.2,0.3-0.3,0.5c-0.1,0.3-0.3,0.6-0.6,0.6c-0.1,0.1-0.2,0.2-0.3,0.3
				c-0.1,0.1-0.3,0.2-0.3,0.3c-0.1,0.1-0.2,0.1-0.3,0.2c-0.4,0.4-0.6,0.5-1,0.5c-0.1,0-0.5,0.1-0.8,0.4c-0.3,0.2-0.6,0.2-0.7,0
				c-0.6-0.4-1.3-0.5-1.9-0.7c-1.1-0.3-1.9-1.3-2.4-2.6c-0.6-1.7-0.6-3.5-0.3-5.3c0.2-0.8,0.2-1.6,0.3-2.3c0.1-0.6,0.2-1.1,0.3-1.7
				c0.2-0.4,0.2-0.6,0.1-1c-0.1,0-0.3-0.1-0.3,0.1c-0.1,0.1-0.3,0.3-0.4,0.5c-0.4,0.7-0.8,1.5-1.3,2.3c-0.3,0.5-0.5,1-0.6,1.7
				c0.1,0.4-0.2,0.6-0.3,0.9c-0.8,1.6-1.6,3-2.1,4.8c-0.5,1.3-1.1,2.4-1.7,3.7c-0.8,1.9-1.8,3.7-2.5,5.7c-0.2,0.6-0.6,1.4-0.8,2.1
				c-0.2,0.6-2.5,5-3,5.4c0,0.2-0.3,0.3-0.5,0.5c-1.1,1.6-2.4,1.5-3.9,1.1c-0.2,0.2-0.4,0-0.6-0.2c-1.5-0.4-2.2-1.8-2.6-3.6
				c-0.3-1.6-0.3-3.2-0.3-4.8c0.1-2.4,0.2-4.8,0.4-7.2c0.5-2.7,0.1-2.5,0.8-5c0.6-3.6,0.3-3,1.6-6.6c0.1-0.6,0.5-1.1,0.6-1.8
				c0.6-1.7,1.2-3.1,1.9-4.6c0.4-1.2,0.7-1.4,1.7-1.2c0.6,0,1.5,0.2,2.3,0.4c0.6,0.1,1.1,0.3,1.8,0.9c0.6,1.2,1.6,2,2.5,3.1
				c0.8,1.5,1,2.6,0.5,4.3c-0.5,1.8-0.6,0.5-1.1,2.4c-1.2,3.9-3.4,6.9-4.4,10.4C31.6,46.5,35.9,42.2,36.3,40.6z"/>
		</g>
		<g>
			<path class="st0" d="M87.3,37.9c-0.1,0.6-1,2.9-1.5,3.2c-0.3,0.1-0.4,0.4-0.6,0.5c-0.4,0.5-0.6,0.8-1,1.2
				c-0.2,0.2-0.5,0.4-0.6,0.6c-0.3,0.6-0.6,0.8-1.1,1.1c-0.2,0.1-0.4,0.2-0.5,0.4c-0.6,0.6-1.3,1.2-1.8,1.8
				c-0.6,0.5-1.1,0.7-1.8,0.9c-0.8,0.2-1.6,0.2-2.3,0.5c-0.6,0.3-1.4,0.3-2.1,0.5c-0.3,0-0.6,0-0.8,0c-1.1-0.4-2.2-0.6-3.1-1.3
				c-0.1-0.1-0.3-0.2-0.5-0.3c-0.8-0.4-1.7-0.8-2.2-1.6c-0.7,0.4-1.4,0.7-1.9,1.2c-0.4,0.2-0.6,0.4-1,0.6c-0.1,0-0.2,0.1-0.2,0.1
				c-0.6,0.7-1.3,0.8-2,1.1c-1.3,0.4-2.6,0.4-3.8-0.3c-0.5-0.3-0.9-0.5-1.4-0.6c-2.7-1.1-4.2-3.1-4.4-6c-0.2-1.5,0.1-2.9,0.7-4.2
				c0.6-1.2,1.3-2.4,2.2-3.4c0-0.1,0.1-0.2,0.2-0.3c1.2-1.8,2.7-3.6,4.1-5.3c1-1.1,2.1-2,3.5-2.9c0.2-0.1,0.6-0.2,0.8-0.2
				c0.6-0.1,1.1-0.2,1.8-0.2c0.1,0,0.2,0,0.3,0c0.6,0.3,1.3,0.3,1.9,0.5c0.2,0.1,0.4,0.2,0.6,0.2c0.5,0.1,0.8,0.1,1,0.5
				c0.1,0.1,0.2,0.1,0.2,0.1c0.5,0,0.8,0.5,1.3,0.5c0.2,0,0.4,0.1,0.5,0.2c0.6,0.6,1.2,1,1.6,1.7c0.1,0.3,0.2,0.5,0.3,0.7
				c0.2,0.8,0,1.4-0.8,1.8c-0.8,0.4-1.6,0.9-2.3,1.5c0,0,0,0,0,0.1c-1,1-2.2,1.9-3,3.1c-0.4,0.5-0.7,0.8-1.1,1.2
				c-0.8,0.9-1.5,1.9-2.2,3c-0.3,0.5-0.6,0.9-0.9,1.3c-0.2,0.2-0.3,0.4-0.4,0.6c-0.6,1-0.9,2-1.1,3c-0.1,0.1,0,0.2,0,0.4
				c0.2-0.1,0.3-0.2,0.4-0.3c0.9-0.9,1.9-1.8,3-2.7c0.6-0.5,1-0.9,1.4-1.6c0.2-0.3,0.5-0.6,0.7-0.8c0.6-0.6,1.1-1.3,1.6-2
				c0.6-1,1.3-2,1.9-3.1c0.8-0.1,1.5,0,2,0.6c0.2,0.2,0.4,0.4,0.6,0.6c0.6,0.8,0.7,1.8,0.8,2.7c0,0.2-0.1,0.3-0.2,0.5
				c-0.4,0.8-0.8,1.8-1.3,2.6c-0.3,0.6-0.4,1.3-0.3,1.9c0.2,0.7,0.5,1.6,0.8,2.3c0.2,0.3,0.5,0.5,0.8,0.5c0.6-0.1,1.3-0.2,1.9-0.5
				c0.6-0.3,1.2-0.6,1.8-0.9c0.6-0.4,1.3-0.7,2-1.2c0.5-0.5,1-0.8,1.5-1.3c1.2-1.2,3-4.2,4.2-5.4c0.1-0.1,0.2-0.1,0.3-0.2
				C86.3,37.1,86.8,37.5,87.3,37.9z"/>
		</g>
		<g>
			<path class="st0" d="M115.9,38.9c-0.3,0.4-0.4,1.8-0.5,2.2c-0.1,0.3-0.6,0.6-0.8,0.7c-0.2,0.6-3.2,1.3-3.5,1.3
				c-0.9,0.6-3.3-1.1-3.6-1.2c0,0-1.3-0.9-1.4-1c-0.1-0.2-1.6-1.5-1.8-1.7c-0.8-1.6-1.3-2-2.1-3.5c-0.8,1.1-0.6,1.2-1.4,2.7
				c-0.7,1.4-1.3,2.9-2.2,4.3c-0.3,0.2-0.4,0.5-0.6,0.6c-0.3,0.9-0.8,1.7-1.6,2.4c-0.6,0.7-0.9,1.5-1.3,2.4c0,0.1-0.1,0.4-0.1,0.5
				c0.1,0.6-0.3,1.1-0.6,1.7c-0.6,0.6-1,1.3-1.4,2.1c-0.6,1.3-1.1,2.3-2.4,3.1c-0.3,0.4-0.6,0.6-1.1,0.6c-0.3,0-0.6,0-1-0.1
				c-0.5,0-1,0.1-1.7,0.2c-1.3,0.6-2.6,0.2-3.1-1.1c-0.3-0.6-3.1-2.6-3.6-3c-0.6-0.6-1.7-2.8-1.5-3.6c0-0.7,0.2-1.4,0.3-2
				c0.4-1.4,0.6-3,0.9-4.5c0.3-1.1,0.5-2.2,0.7-3.4c0.6-2.6,1.1-5.1,1.8-7.5c0.5-1.5,0.7-2.8,1-4.2c0.1-0.8,0.1-1.8,0.4-2.6
				c0.1-0.9,0-0.6,0.1-1.3c0.1-0.3,0.1-0.5,0.3-0.7c0.3-0.2,0.6-0.1,0.9,0.2c0.1,0.2,0.4,0.5,0.5,0.6c0.4,0.5,0.2,0.6,0.8,0.6
				c0.2,0,0.6,0.3,0.6,0.4c0.5,0.8,1.2,1.3,1.8,1.8c0.4,0.7,1,1.2,1.1,2.1c-0.4,0-0.6,0-0.9-0.1c-0.2,0.6-0.4,0.9-0.1,1.6
				c0.5,0.9,0.5,1.9,0.6,3c0,0.5,0.1,0.9,0.1,1.2c0.4,1.1,0.4,2.3,0.4,3.4c0,0.3,0,0.5,0,0.7c0.1,0.9,0.1,1.8,0.1,2.8
				c-0.1,0.7,0,1.5,0.1,2.1c0,0.6,0,0.6-0.3,1.3l-0.3-0.1c-0.1-0.5-0.1-0.8-0.2-1.2c0-0.1-0.2-0.2-0.3-0.3c-0.1,0-0.2-0.2-0.3,0
				c-0.1,0-0.2,0.2-0.2,0.3c0,1,0,1.9,0.1,2.9c0.1,0.5,0.2,1,0.1,1.5c-0.1,0.4,0,0.6,0.2,0.8c0.1,0,0.4,0.1,0.5,0
				c0.1,0,0.2-0.2,0.1-0.4c-0.1-0.5,0.1-1.1,0.3-1.8c0,0,0.1-0.1,0.2-0.2c0,0.1,0.1,0.2,0.1,0.4c0.2,0.6,0.2,1,0.2,1.5
				c0.1,0.3,0.1,0.4,0.2,0.6c0,0.2,0.1,0.3,0.1,0.3c-0.5,0.6,0.1,0.8,0.2,1.3c0.2-0.1,0.4-0.3,0.5-0.4c1.4-1.7,2.8-3.2,4-5.2
				c0.5-0.6,0.9-1.3,1.4-1.9c0.6-0.8,1.1-1.8,1.5-2.8c0.2-0.6,0.6-1.5,0.9-2c1-2.4,1.2-0.8,1.8-3c0.1-0.3-0.5-2.4-0.6-2.8
				c0-1.8-0.5-1.7,0.6-1.9c0.4,0,2,0.4,2.3,0.6c0.6,0.3,0.1,0.4,0.7,0.4c0.4-0.1,0.6,0.1,0.9,0.2c0.2,0.1,0.3,0.2,0.4,0.5
				c0,0.2,0.1,0.3,0.2,0.6c0.6,3.6,0.9,4.3,1.9,6.7c0.8,0.6,1.8,3.1,3.7,2.8c0.9-0.3,1.4-0.6,2.3-0.8c0.8-0.2,1.5-1.2,2.3-1.7
				c0.1-0.1,0.2-0.1,0.3-0.1C116.1,38.7,116,38.8,115.9,38.9z M88.7,38.2l0.1,0.2c0,0.1,0.1,0,0.1,0c0.1-0.3,0.1-0.5,0.2-0.6
				c0-0.2,0-0.3,0-0.5c-0.1-0.1-0.2-0.2-0.3-0.1c0,0.1-0.1,0.3,0,0.3c0.1,0.1,0.2,0.2,0.3,0.3C89,37.9,88.9,38.1,88.7,38.2z
				 M88.9,39C88.9,39,88.8,39,88.9,39c-0.2-0.1-0.2,0-0.2,0c0,0.2,0.1,0.2,0.1,0.3C88.9,39.2,88.9,39,88.9,39z M89,39.9
				C89,40,89,40,89,39.9C89,40,89,40,89,39.9C89.1,39.9,89.1,39.9,89,39.9z M89.6,49c-0.1,0.2-0.2,0.2-0.2,0.3c0,0,0,0.1,0.1,0.1
				c0,0,0.1-0.1,0.2-0.1C89.6,49.2,89.6,49.2,89.6,49z M89.7,48.2c0.2-0.1,0.2-0.3,0-0.4c-0.1,0-0.1,0-0.1,0c0,0.1-0.1,0.2-0.1,0.4
				c0,0,0.1,0,0.1,0.2L89.7,48.2z"/>
		</g>
		<g>
			<path class="st0" d="M119.2,37.7c0,0.2-0.2,0.4-0.4,0.5c-0.1,0.1-0.3,0.2-0.3,0.5c-0.1,0.4-0.2,0.5-0.5,0.6
				c-0.2,0.1-0.2,0.2-0.3,0.7c0.2,0,0.3,0,0.4,0.1c0,0,0,0,0,0.1c-0.2,0-0.4,0-0.6,0c0.1-0.3,0.1-0.6,0.1-0.7c-0.1,0-0.2,0-0.2,0
				c-0.1,0.6-0.2,1.3-0.3,1.9c0.2,0.1,0.3,0.2,0.4,0.2c0.1,0.6,0.1,1.2,0.1,1.8c0,0.6,0.2,1.2,0.4,1.7c0.3,0.4,1,2.4,1.3,2.8
				c1.3,1.3,2.9,3,4.3,3c0.5,0.1,3.1-0.4,3.6-0.5c2.2-0.6,4.3-1.8,6.4-3.4c1.6-1.2,3-2.6,4.6-3.9c0.1-0.1,0.2-0.2,0.3-0.3
				c0.6-0.6,1.1-1.2,1.7-1.8c1-1,1.9-2,2.8-3.2c0.3-0.5,0.6-0.9,1.1-1.1c-0.2,0.8-0.4,1.6-0.7,2.3c-0.1,0.3-0.3,0.6-0.5,0.7
				c-0.6,0.6-1,1.2-1.4,1.9c-0.3,0.4-0.6,0.7-0.9,1.1c-0.1,0.1-0.2,0.3-0.4,0.6c0.3-0.1,0.5-0.2,0.7-0.3c-0.1,0.6-0.6,0.6-0.6,1.1
				c0.1,0.1,0.1,0.2,0.3,0.3c-0.3,0.5-0.6,0.7-0.9,1.1c-0.6,0.5-1.1,1-1.6,1.6c-0.8,0.9-1.8,1.7-2.7,2.4c-0.5,0.4-0.8,0.7-1.3,1
				c-0.4,0.3-0.7,0.5-1.1,0.7c-0.6,0.3-1.1,0.6-1.7,0.9c-0.9,0.6-1.9,1-3,1.2c-0.3,0.1-0.6,0.2-0.8,0.3c-1.1,0.4-2.2,0.6-3.3,0.6
				c-1.3,0.2-6.7-0.8-7.9-1.3c-3.2-1.3-3.9-2.9-5.4-4.2c-0.6-0.5-1-1.2-1.3-1.9c-0.5-1.2-0.6-2.5-0.6-3.9c0-2.9,0.7-5.6,1.9-8.2
				c0.3-0.6,0.3-0.6,0.2-1.4c-0.5,0.3-0.7,0.5-0.9,1c-0.3,0.8-0.6,1.6-1.1,2.4c0-0.8,0.4-1.4,0.6-2c0.7-1.7,1.6-3.2,2.6-4.7
				c1-1.6,2.1-3,3.4-4.2c1.3-1.4,2.7-2.6,4.2-3.5c0.4-0.2,0.6-0.3,0.9-0.5c0.5-0.2,0.9-0.3,1.2,0.2c0.3,0.3,0.6,0.2,0.8,0.4
				c0.3,0.2,0.4,0.6,0.6,0.7c0.9,0.5,4.4,1.4,5.3,1.9c0.3,0.2,0.5,0.6,0.6,0.9c0.5,0.8,0.8,1.8,1.5,2.3c0.2,0.2,0.3,0.6,0.4,0.8
				c0.2,1.1,0.3,2.1,0,3.3c-0.2,1.3-0.7,2.5-1.4,3.6c-0.4,0.6-0.7,1.2-1,1.9c-0.2,0.6-0.6,1.2-0.9,1.8c-0.4,0.7-1,1.2-1.7,1.4
				c-0.6,0.3-1.2,0.4-1.8,0.3c-0.3-0.1-0.6,0-0.7-0.4c0-0.1-0.1-0.1-0.1-0.1c-0.7,0.1-1.2-0.7-1.8-1c-0.1-0.1-0.2-0.4-0.2-0.5
				c0.2-0.4,0-0.6-0.1-0.8c-0.4-0.7-0.7-1.6-1.2-2.3c-0.1-0.3-0.4-0.4-0.6-0.1C119.6,36.7,119.2,37.1,119.2,37.7z M110.4,46
				c0.1,0.3,0.2,0.5,0.3,0.7c0,0.3,0.3,0.5,0.1,0.8c-0.1-0.1-0.2-0.1-0.2-0.2c-0.5-0.9-0.6-2.1-0.8-3.3c-0.1-0.1,0-0.2,0-0.3
				c0-1.4,0-2.7,0.4-4.1c0.1-0.3,0.2-0.6,0.2-0.8c0-0.2,0-0.3,0-0.6c-0.3,0.6-0.5,0.9-0.6,1.3c-0.1,0.5-0.2,0.8-0.3,1.3
				c-0.4,2.4-0.3,4.6,0.7,6.5c0.2,0.4,0.5,0.6,0.7,1c0.2,0.2,0.4,0.3,0.6,0.4c0,0.1,0.1,0,0.3,0c-0.3-0.5-0.6-0.8-0.7-1.3
				c-0.3-0.6-0.3-1.1-0.6-1.6C110.5,45.9,110.4,46,110.4,46z M110.4,40.1c-0.5,1.5-0.4,2.9-0.2,4.2c0,0.1,0.1,0.1,0.2,0.2
				c0.1-1,0.2-1.9,0.3-2.9c0.1-0.6,0.2-1.3-0.1-1.8C110.5,39.9,110.4,40,110.4,40.1z M117,42.4c0,0.1,0,0.1,0,0.2
				C117,42.5,117,42.5,117,42.4z M122,32.7c-0.2,0.3-0.5,0.6-0.6,1c-0.4,0.6-0.3,1.1,0.2,1.4c0.3,0.2,0.6,0.4,0.8,0.6
				c0.6,0.6,1.3,0.6,2,0.5c0.6-0.2,1.1-0.8,1.5-1.5c0.6-1.6,1-1.8,1.6-3.4c1.5-3.5-1.5-2.7-2.9-1.6C123.6,30.5,122.9,31.7,122,32.7z
				"/>
		</g>
		<g>
			<path class="st0" d="M167.9,41.8c-0.5,0.9-2,3-2,4c-0.1,0.1-0.4,0.4-0.6,0.5c-0.3,0.3-0.6,0.6-0.7,1.1c-0.2,0.5-0.5,0.6-0.6,1
				c-1.3,2.3-2.1,3.6-4.2,5.6c-0.6,0.5-5.4,5.2-5.8,5.6c-2.7,2.2-6.3,1.2-8.9,1.3c-0.7,0-1.5-0.1-1.9-0.4c-0.8-0.5-2.7-1.2-3.2-2
				c-0.8-2-3-3.4-3.1-6.3c-0.1-0.7-0.5-1.2-0.6-1.9c0.1-3,0.6-5.9,0.9-8.9c0.6-2.1,1-4.4,1.4-6.5c0.9-4,1.2-4.4,3-8
				c0.9-2.4,1.8-2.6,2.7-5c0.6-1.3,1.4-2.6,2.1-3.7c0.6-1.4,1.5-2.7,2.3-4.1c1.8-3,3.7-5.7,5.7-7.9c1.4-1.4,2.9-2.9,4.2-4.1
				c0.8-0.6,1.7-1.4,2.5-1.7c0.3-0.2,0.6-0.3,0.8-0.4c1.3-0.1,2.5,0.1,3.4,1c0.9,0.8,1.2,2.1,0.9,3.9c-0.2,1.1-0.3,2.2-0.6,3.2
				c-0.1,0.8-0.5,1.6-0.9,2.5c-0.6,1.6-1.4,3-2.4,4.5c-0.6,1.2-1.4,2.4-2,3.6c-1.1,1.7-2,3.4-3.1,5c-1.9,2.6-3.6,5.4-5.4,7.9
				c-2.9,4.9-2.6,5.7-3.6,10.6c-0.4,1.9-0.2,3-0.3,5c0.1,0.6,0.4,4.2,0.5,4.5c0.3,1.3,0.6,1.8,1.1,3c0.2,0.4,1.5,0.6,1.9,0.8
				c0.6,0.5,5.5-2.9,6.2-3.3c1.5-0.8,2.7-2.2,4-3.5c1.4-1.3,2-2.8,3.2-4.5c1.7-2.2,2.2-4.1,4-6.5C169.9,37.6,169.2,39.5,167.9,41.8z
				 M153.1,25.2c3-4.7,3.4-5.4,6.1-10.5c1-1.9,1.8-3.9,2.9-5.8c0.5-1.4,0.7-2.8,0.9-4.2c0.2-0.5,0.2-0.7-0.3-0.6
				c-0.5,0.1-0.7,0.3-1,0.5c-1.2,0.5-2.3,1.4-3.1,2.7c-0.6,0.7-1.1,1.6-1.8,2.3c-0.8,1-1.3,2-1.7,3.2c-0.5,0.9-0.9,2-1.4,3
				c-0.6,1.9-1.6,3.9-2.5,5.8c-0.4,0.9-0.6,1.9-1,2.9c-1.1,3.1-0.6,1.6-1.7,4.7c-0.3,0.7-0.1,2.9,1.1,1.6
				C151,28.7,151.9,27.3,153.1,25.2z"/>
		</g>
	</g>
</g>
</svg>
